<?xml version="1.0" encoding="UTF-8" standalone="no"?>
<!DOCTYPE svg PUBLIC "-//W3C//DTD SVG 1.1//EN" "http://www.w3.org/Graphics/SVG/1.1/DTD/svg11.dtd">
<svg width="100%" height="100%" viewBox="0 0 1000 500" version="1.1" xmlns="http://www.w3.org/2000/svg" xmlns:xlink="http://www.w3.org/1999/xlink" xml:space="preserve" xmlns:serif="http://www.serif.com/" style="fill-rule:evenodd;clip-rule:evenodd;stroke-linejoin:round;stroke-miterlimit:2;">
    <g transform="matrix(2.43722,0,0,2.43722,-1538.28,-143.135)">
        <path d="M719.349,186.544C714.037,184.331 708.504,181.011 702.749,176.584C696.995,172.158 692.457,167.731 689.137,163.304C692.015,157.107 695.667,151.297 700.093,145.874C704.52,140.452 708.947,136.191 713.373,133.092C719.128,135.527 724.661,139.124 729.973,143.882C735.285,148.641 739.491,153.234 742.589,157.66C740.376,162.972 737.111,168.34 732.795,173.762C728.479,179.185 723.997,183.446 719.349,186.544Z" style="fill-rule:nonzero;"/>
    </g>
    <g transform="matrix(-0.179282,-2.64622,2.11154,-0.143058,615.262,2151.96)">
        <path d="M719.349,186.544C714.037,184.331 708.504,181.011 702.749,176.584C696.995,172.158 692.457,167.731 689.137,163.304C692.015,157.107 695.667,151.297 700.093,145.874C704.52,140.452 708.947,136.191 713.373,133.092C719.128,135.527 724.661,139.124 729.973,143.882C735.285,148.641 739.491,153.234 742.589,157.66C740.376,162.972 737.111,168.34 732.795,173.762C728.479,179.185 723.997,183.446 719.349,186.544Z" style="fill-rule:nonzero;"/>
    </g>
    <g transform="matrix(-0.14764,2.41463,-2.2498,-0.137562,1078.62,-1470.15)">
        <path d="M719.349,186.544C714.037,184.331 708.504,181.011 702.749,176.584C696.995,172.158 692.457,167.731 689.137,163.304C692.015,157.107 695.667,151.297 700.093,145.874C704.52,140.452 708.947,136.191 713.373,133.092C719.128,135.527 724.661,139.124 729.973,143.882C735.285,148.641 739.491,153.234 742.589,157.66C740.376,162.972 737.111,168.34 732.795,173.762C728.479,179.185 723.997,183.446 719.349,186.544Z" style="fill-rule:nonzero;"/>
    </g>
    <g transform="matrix(-2.20255,-0.290656,0.326478,-2.47401,1932.58,843.443)">
        <path d="M719.349,186.544C714.037,184.331 708.504,181.011 702.749,176.584C696.995,172.158 692.457,167.731 689.137,163.304C692.015,157.107 695.667,151.297 700.093,145.874C704.52,140.452 708.947,136.191 713.373,133.092C719.128,135.527 724.661,139.124 729.973,143.882C735.285,148.641 739.491,153.234 742.589,157.66C740.376,162.972 737.111,168.34 732.795,173.762C728.479,179.185 723.997,183.446 719.349,186.544Z" style="fill-rule:nonzero;"/>
    </g>
</svg>
